<svg width="42" height="32" viewBox="0 0 42 32" fill="none" xmlns="http://www.w3.org/2000/svg">
<path d="M26.6765 0C26.2792 0.711375 25.9253 1.44604 25.6165 2.2C22.582 1.7201 19.4909 1.7201 16.4565 2.2C16.1476 1.44604 15.7937 0.711375 15.3965 0C12.538 0.488402 9.75926 1.36307 7.13646 2.6C2.44634 9.36857 0.31933 17.5859 1.13646 25.78C4.19293 28.0777 7.62337 29.8302 11.2765 30.96C12.1083 29.8612 12.8507 28.6975 13.4965 27.48C12.3046 27.0406 11.159 26.4845 10.0765 25.82C10.3734 25.6224 10.6543 25.4018 10.9165 25.16C14.0734 26.6806 17.5324 27.4703 21.0365 27.4703C24.5405 27.4703 27.9995 26.6806 31.1565 25.16C31.4365 25.4 31.7165 25.62 31.9965 25.82C30.908 26.4793 29.7636 27.0415 28.5765 27.5C29.1955 28.7451 29.918 29.9359 30.7365 31.06C34.385 29.934 37.8095 28.1812 40.8565 25.88C41.6932 17.6844 39.5645 9.46037 34.8565 2.7C32.2631 1.43747 29.5118 0.529341 26.6765 0ZM14.3965 21.1C13.3956 21.0282 12.4615 20.5714 11.7903 19.8255C11.1191 19.0797 10.7628 18.1028 10.7965 17.1C10.7578 16.0958 11.1122 15.1162 11.7845 14.3692C12.4567 13.6223 13.3938 13.1669 14.3965 13.1C15.3991 13.1669 16.3362 13.6223 17.0084 14.3692C17.6807 15.1162 18.0351 16.0958 17.9965 17.1C18.0351 18.1042 17.6807 19.0838 17.0084 19.8308C16.3362 20.5777 15.3991 21.0331 14.3965 21.1ZM27.6765 21.1C26.6756 21.0282 25.7415 20.5714 25.0703 19.8255C24.3991 19.0797 24.0428 18.1028 24.0765 17.1C24.0378 16.0958 24.3922 15.1162 25.0645 14.3692C25.7367 13.6223 26.6738 13.1669 27.6765 13.1C28.681 13.1619 29.6211 13.6158 30.2944 14.3639C30.9676 15.112 31.3203 16.0945 31.2765 17.1C31.3203 18.1055 30.9676 19.088 30.2944 19.8361C29.6211 20.5842 28.681 21.0381 27.6765 21.1Z" fill="white"/>
</svg>
