<svg width="48" height="49" viewBox="0 0 48 49" fill="none" xmlns="http://www.w3.org/2000/svg">
<rect width="48" height="48" transform="translate(0 0.232056)" />
<path d="M40 8.23206H8C5.794 8.23206 4 10.0261 4 12.2321V36.2321C4 38.4381 5.794 40.2321 8 40.2321H40C42.206 40.2321 44 38.4381 44 36.2321V12.2321C44 10.0261 42.206 8.23206 40 8.23206ZM40 12.2321V13.2541L24 25.7001L8 13.2561V12.2321H40ZM8 36.2321V18.3201L22.772 29.8101C23.1222 30.0851 23.5547 30.2347 24 30.2347C24.4453 30.2347 24.8778 30.0851 25.228 29.8101L40 18.3201L40.004 36.2321H8Z" fill="black"/>
</svg>
