<svg width="48" height="48" viewBox="0 0 48 48" fill="none" xmlns="http://www.w3.org/2000/svg">
<path d="M23.998 14.754C21.5453 14.754 19.193 15.7283 17.4587 17.4627C15.7243 19.197 14.75 21.5493 14.75 24.002C14.75 26.4547 15.7243 28.807 17.4587 30.5413C19.193 32.2757 21.5453 33.25 23.998 33.25C26.4507 33.25 28.803 32.2757 30.5373 30.5413C32.2717 28.807 33.246 26.4547 33.246 24.002C33.246 21.5493 32.2717 19.197 30.5373 17.4627C28.803 15.7283 26.4507 14.754 23.998 14.754ZM23.998 30.008C22.4046 30.008 20.8764 29.375 19.7497 28.2483C18.623 27.1216 17.99 25.5934 17.99 24C17.99 22.4066 18.623 20.8784 19.7497 19.7517C20.8764 18.625 22.4046 17.992 23.998 17.992C25.5914 17.992 27.1196 18.625 28.2463 19.7517C29.373 20.8784 30.006 22.4066 30.006 24C30.006 25.5934 29.373 27.1216 28.2463 28.2483C27.1196 29.375 25.5914 30.008 23.998 30.008Z" fill="#FAF8F8"/>
<path d="M33.6121 16.57C34.8028 16.57 35.7681 15.6047 35.7681 14.414C35.7681 13.2233 34.8028 12.258 33.6121 12.258C32.4213 12.258 31.4561 13.2233 31.4561 14.414C31.4561 15.6047 32.4213 16.57 33.6121 16.57Z" fill="#FAF8F8"/>
<path d="M41.0659 12.222C40.6029 11.0264 39.8954 9.94056 38.9886 9.03411C38.0818 8.12766 36.9957 7.42054 35.7999 6.95799C34.4006 6.43271 32.9223 6.14868 31.4279 6.11799C29.5019 6.03399 28.8919 6.00999 24.0079 6.00999C19.1239 6.00999 18.4979 6.00999 16.5879 6.11799C15.0947 6.14711 13.6174 6.4312 12.2199 6.95799C11.0238 7.42 9.93744 8.12693 9.03057 9.03345C8.12371 9.93997 7.41636 11.026 6.95391 12.222C6.42852 13.6212 6.14514 15.0997 6.11591 16.594C6.02991 18.518 6.00391 19.128 6.00391 24.014C6.00391 28.898 6.00391 29.52 6.11591 31.434C6.14591 32.93 6.42791 34.406 6.95391 35.808C7.41766 37.0035 8.1257 38.0892 9.03278 38.9955C9.93986 39.9019 11.026 40.6091 12.2219 41.072C13.6168 41.6184 15.0946 41.9228 16.5919 41.972C18.5179 42.056 19.1279 42.082 24.0119 42.082C28.8959 42.082 29.5219 42.082 31.4319 41.972C32.9261 41.9416 34.4044 41.6583 35.8039 41.134C36.9994 40.6704 38.0852 39.9626 38.9918 39.0559C39.8985 38.1492 40.6063 37.0635 41.0699 35.868C41.5959 34.468 41.8779 32.992 41.9079 31.496C41.9939 29.572 42.0199 28.962 42.0199 24.076C42.0199 19.19 42.0199 18.57 41.9079 16.656C41.8846 15.1405 41.5998 13.6405 41.0659 12.222ZM38.6299 31.286C38.617 32.4386 38.4066 33.5805 38.0079 34.662C37.7076 35.4397 37.2477 36.146 36.658 36.7353C36.0683 37.3247 35.3618 37.7841 34.5839 38.084C33.5144 38.4809 32.3846 38.6913 31.2439 38.706C29.3439 38.794 28.8079 38.816 23.9359 38.816C19.0599 38.816 18.5619 38.816 16.6259 38.706C15.4858 38.692 14.3566 38.4816 13.2879 38.084C12.5073 37.786 11.7979 37.3274 11.2057 36.7379C10.6135 36.1484 10.1516 35.4412 9.84991 34.662C9.4568 33.5921 9.24653 32.4637 9.22791 31.324C9.14191 29.424 9.12191 28.888 9.12191 24.016C9.12191 19.142 9.12191 18.644 9.22791 16.706C9.24083 15.554 9.45122 14.4128 9.84991 13.332C10.4599 11.754 11.7099 10.512 13.2879 9.90799C14.3571 9.51227 15.486 9.30192 16.6259 9.28599C18.5279 9.19999 19.0619 9.17599 23.9359 9.17599C28.8099 9.17599 29.3099 9.17599 31.2439 9.28599C32.3847 9.29972 33.5146 9.51014 34.5839 9.90799C35.3618 10.2085 36.0682 10.6684 36.6578 11.2581C37.2475 11.8477 37.7074 12.5541 38.0079 13.332C38.401 14.4019 38.6113 15.5303 38.6299 16.67C38.7159 18.572 38.7379 19.106 38.7379 23.98C38.7379 28.852 38.7379 29.376 38.6519 31.288H38.6299V31.286Z" fill="#FAF8F8"/>
</svg>
