<svg width="48" height="49" viewBox="0 0 48 49" fill="none" xmlns="http://www.w3.org/2000/svg">
<path d="M9.96609 14.6261C12.3829 14.6261 14.3421 12.6669 14.3421 10.2501C14.3421 7.83326 12.3829 5.87405 9.96609 5.87405C7.54929 5.87405 5.59009 7.83326 5.59009 10.2501C5.59009 12.6669 7.54929 14.6261 9.96609 14.6261Z" fill="white"/>
<path d="M18.4739 17.9421V42.2201H26.0119V30.2141C26.0119 27.0461 26.6079 23.9781 30.5359 23.9781C34.4099 23.9781 34.4579 27.6001 34.4579 30.4141V42.2221H41.9999V28.9081C41.9999 22.3681 40.5919 17.3421 32.9479 17.3421C29.2779 17.3421 26.8179 19.3561 25.8119 21.2621H25.7099V17.9421H18.4739ZM6.18994 17.9421H13.7399V42.2201H6.18994V17.9421Z" fill="white"/>
</svg>
