<svg width="38" height="37" viewBox="0 0 38 37" fill="none" xmlns="http://www.w3.org/2000/svg">
<path fill-rule="evenodd" clip-rule="evenodd" d="M31.776 5.26606C30.1127 3.59183 28.1337 2.26429 25.9537 1.36036C23.7737 0.456421 21.436 -0.00594047 19.076 5.76183e-05C9.17997 5.76183e-05 1.12397 8.05406 1.11997 17.9541C1.11997 21.1181 1.94597 24.2061 3.51597 26.9301L0.969971 36.2321L10.488 33.7341C13.1208 35.1672 16.0704 35.9187 19.068 35.9201H19.076C28.97 35.9201 37.026 27.8661 37.03 17.9661C37.0368 15.607 36.5759 13.27 35.6741 11.0902C34.7723 8.91031 33.4474 6.9308 31.776 5.26606ZM19.076 32.8901H19.07C16.397 32.8903 13.7732 32.1712 11.474 30.8081L10.93 30.4841L5.28197 31.9661L6.78797 26.4601L6.43397 25.8961C4.93955 23.5169 4.14844 20.7636 4.15197 17.9541C4.15597 9.72606 10.85 3.03206 19.082 3.03206C21.0425 3.0277 22.9844 3.41222 24.7953 4.16336C26.6062 4.9145 28.2501 6.01734 29.632 7.40806C31.0212 8.79214 32.1224 10.4378 32.8717 12.2501C33.6211 14.0623 34.0039 16.005 33.998 17.9661C33.994 26.1941 27.3 32.8901 19.076 32.8901ZM27.262 21.7121C26.812 21.4861 24.608 20.4021 24.196 20.2521C23.786 20.1021 23.488 20.0281 23.188 20.4761C22.888 20.9241 22.028 21.9341 21.766 22.2341C21.504 22.5341 21.242 22.5701 20.794 22.3461C20.346 22.1221 18.9 21.6481 17.186 20.1201C15.852 18.9301 14.952 17.4621 14.69 17.0121C14.428 16.5621 14.662 16.3201 14.888 16.0961C15.09 15.8961 15.336 15.5721 15.56 15.3101C15.784 15.0481 15.858 14.8621 16.008 14.5621C16.158 14.2621 16.084 14.0001 15.97 13.7761C15.858 13.5501 14.96 11.3421 14.586 10.4441C14.224 9.57406 13.854 9.69006 13.578 9.67806C13.2921 9.66637 13.0061 9.66103 12.72 9.66206C12.4925 9.66785 12.2686 9.72059 12.0625 9.81695C11.8563 9.91332 11.6723 10.0512 11.522 10.2221C11.11 10.6721 9.95197 11.7561 9.95197 13.9641C9.95197 16.1721 11.56 18.3061 11.784 18.6061C12.008 18.9061 14.948 23.4361 19.448 25.3801C20.52 25.8421 21.356 26.1181 22.006 26.3261C23.08 26.6681 24.058 26.6181 24.832 26.5041C25.694 26.3761 27.486 25.4201 27.86 24.3721C28.234 23.3241 28.234 22.4261 28.122 22.2381C28.01 22.0501 27.708 21.9361 27.262 21.7121Z" fill="white"/>
</svg>
